<?xml version="1.0" encoding="UTF-8"?>
<svg version="1.1" xmlns="http://www.w3.org/2000/svg" width="981" height="403">
<path d="M0 0 C291.72 0 583.44 0 884 0 C884 13.86 884 27.72 884 42 C897.53 42 911.06 42 925 42 C925 138.69 925 235.38 925 335 C633.28 335 341.56 335 41 335 C41 321.47 41 307.94 41 294 C27.47 294 13.94 294 0 294 C0 196.98 0 99.96 0 0 Z " fill="#3A65C5" transform="translate(14,28)"/>
<path d="M0 0 C291.72 0 583.44 0 884 0 C884 13.86 884 27.72 884 42 C897.53 42 911.06 42 925 42 C925 138.69 925 235.38 925 335 C633.28 335 341.56 335 41 335 C41 321.47 41 307.94 41 294 C27.47 294 13.94 294 0 294 C0 196.98 0 99.96 0 0 Z M41 42 C41 124.83 41 207.66 41 293 C319.19 293 597.38 293 884 293 C884 210.17 884 127.34 884 42 C605.81 42 327.62 42 41 42 Z " fill="#9AB0E1" transform="translate(14,28)"/>
<path d="M0 0 C13.2 0 26.4 0 40 0 C40 55.11 40 110.22 40 167 C28.45 167 16.9 167 5 167 C4.34 164.36 3.68 161.72 3 159 C0.73996957 160.11925317 -1.50189838 161.26385515 -3.734375 162.4375 C-4.72953125 162.953125 -5.7246875 163.46875 -6.75 164 C-7.73484375 164.515625 -8.7196875 165.03125 -9.734375 165.5625 C-17.90953465 169.16113487 -25.42205038 169.3368866 -34.25 169.3125 C-35.40113281 169.32861328 -36.55226563 169.34472656 -37.73828125 169.36132812 C-52.51312588 169.36965667 -64.94032451 165.65503852 -75.859375 155.48046875 C-89.05384792 140.19125286 -89.32976801 119.08718892 -88 100 C-86.14324993 83.74105852 -79.26534935 68.83214176 -66.76171875 58.07421875 C-55.88138491 49.75815344 -43.28263056 46.81788674 -29.875 46.75 C-28.87984375 46.729375 -27.8846875 46.70875 -26.859375 46.6875 C-16.38620948 46.63280984 -9.39129737 49.30435132 0 54 C0 36.18 0 18.36 0 0 Z " fill="#FCFCFD" transform="translate(571,111)"/>
<path d="M0 0 C14.52 0 29.04 0 44 0 C55.19546724 29.06492407 66.35793669 58.14180435 77.45581055 87.24414062 C81.44965471 97.71520441 85.4490984 108.18394222 89.48046875 118.640625 C89.82737259 119.54068771 90.17427643 120.44075043 90.5316925 121.36808777 C92.11721978 125.48054247 93.7048689 129.59215807 95.29614258 133.70239258 C95.85371776 135.14663193 96.41125584 136.59088562 96.96875 138.03515625 C97.43732422 139.2456665 97.90589844 140.45617676 98.38867188 141.70336914 C100.66575866 147.77525556 102.81891801 153.89297042 105 160 C90.81 160 76.62 160 62 160 C59.855 154.616875 57.71 149.23375 55.5 143.6875 C54.82130859 141.99197998 54.14261719 140.29645996 53.44335938 138.54956055 C52.90974955 137.20377447 52.37652039 135.85783737 51.84375 134.51171875 C51.56305664 133.81453735 51.28236328 133.11735596 50.99316406 132.39904785 C49.82894642 129.44532533 49 127.20574244 49 124 C31.18 124 13.36 124 -5 124 C-5.99 126.97 -6.98 129.94 -8 133 C-9.6557311 137.52024349 -11.3932353 142.00839126 -13.125 146.5 C-13.80755859 148.28664063 -13.80755859 148.28664063 -14.50390625 150.109375 C-14.93832031 151.23859375 -15.37273438 152.3678125 -15.8203125 153.53125 C-16.21492676 154.55798828 -16.60954102 155.58472656 -17.01611328 156.64257812 C-18 159 -18 159 -19 160 C-22.10251201 160.08874135 -25.1826812 160.11518455 -28.28515625 160.09765625 C-29.21597519 160.0962413 -30.14679413 160.09482635 -31.1058197 160.09336853 C-34.09141191 160.08775172 -37.07693029 160.0751964 -40.0625 160.0625 C-42.08137913 160.05748716 -44.10025943 160.05292388 -46.11914062 160.04882812 C-51.07945572 160.03777683 -56.03971532 160.02050095 -61 160 C-59.17658956 153.65621185 -57.14313135 147.47326854 -54.7265625 141.33203125 C-54.25292267 140.11354996 -54.25292267 140.11354996 -53.76971436 138.87045288 C-53.08463496 137.10884083 -52.39789537 135.34787369 -51.70965576 133.5874939 C-49.80321734 128.71004322 -47.91018317 123.82738733 -46.015625 118.9453125 C-45.61246063 117.9072496 -45.20929626 116.86918671 -44.79391479 115.79966736 C-39.93674196 103.28172378 -35.15743721 90.7341369 -30.375 78.1875 C-28.60194894 73.53891503 -26.82838381 68.8905263 -25.0546875 64.2421875 C-24.62572174 63.11794373 -24.19675598 61.99369995 -23.75479126 60.83538818 C-19.99585127 50.98557901 -16.23152743 41.13785392 -12.45294189 31.29556274 C-11.82988744 29.67208149 -11.20742606 28.04837248 -10.58563232 26.42440796 C-9.73586989 24.20545955 -8.88386672 21.98738422 -8.03125 19.76953125 C-7.56267578 18.54854736 -7.09410156 17.32756348 -6.61132812 16.06958008 C-4.47901823 10.68420529 -2.22775018 5.34660043 0 0 Z " fill="#FDFEFE" transform="translate(692,118)"/>
<path d="M0 0 C14.52 0 29.04 0 44 0 C53.17625592 22.94063981 53.17625592 22.94063981 56.671875 32.15625 C57.07239578 33.2076416 57.47291656 34.2590332 57.88557434 35.34228516 C58.73625775 37.57566794 59.58625133 39.80931358 60.43557739 42.04321289 C62.72796257 48.07193416 65.02631648 54.09837994 67.32421875 60.125 C67.79427841 61.35810913 68.26433807 62.59121826 68.74864197 63.86169434 C73.66355645 76.7499941 78.60938997 89.62633974 83.5625 102.5 C83.97838379 103.5815033 84.39426758 104.66300659 84.82275391 105.77728271 C88.83678222 116.21521413 92.85725118 126.65044402 96.91796875 137.0703125 C97.21002701 137.82064758 97.50208527 138.57098267 97.80299377 139.34405518 C99.11509025 142.71480407 100.43005859 146.08434889 101.75219727 149.45117188 C102.40853149 151.13436523 102.40853149 151.13436523 103.078125 152.8515625 C103.45356445 153.80885254 103.82900391 154.76614258 104.21582031 155.75244141 C105 158 105 158 105 160 C91.14 160 77.28 160 63 160 C59.51392633 152.33063792 56.23300459 144.76662577 53.1875 136.9375 C52.78080078 135.90689453 52.37410156 134.87628906 51.95507812 133.81445312 C51.37983398 132.34202148 51.37983398 132.34202148 50.79296875 130.83984375 C50.27512817 129.51521118 50.27512817 129.51521118 49.74682617 128.16381836 C49 126 49 126 49 124 C31.18 124 13.36 124 -5 124 C-5.99 127.3 -6.98 130.6 -8 134 C-8.79759093 136.23201684 -9.62138314 138.45498523 -10.48046875 140.6640625 C-10.87903076 141.6948291 -11.27759277 142.7255957 -11.68823242 143.78759766 C-12.18299072 145.05394043 -12.67774902 146.3202832 -13.1875 147.625 C-14.775625 151.70875 -16.36375 155.7925 -18 160 C-32.19 160 -46.38 160 -61 160 C-54.1165814 140.49698064 -54.1165814 140.49698064 -50.77734375 131.8984375 C-50.3990593 130.91795441 -50.02077484 129.93747131 -49.63102722 128.92727661 C-48.82187911 126.83059685 -48.01168502 124.73432047 -47.20050049 122.63842773 C-44.98929511 116.92496284 -42.78607427 111.20841833 -40.58203125 105.4921875 C-40.1244342 104.30594788 -39.66683716 103.11970825 -39.19537354 101.89752197 C-34.58670381 89.94335041 -30.02129842 77.97279301 -25.45910645 66.00082397 C-17.0616197 43.96500888 -8.57895755 21.96590231 0 0 Z " fill="#FDFEFE" transform="translate(217,118)"/>
<path d="M0 0 C10.729475 9.45215655 14.43606893 20.38148941 15.625 34.3125 C15.94115773 40.59681013 15.85981306 46.88974767 15.8203125 53.1796875 C15.81657235 54.95329629 15.81373013 56.72690718 15.81173706 58.5005188 C15.80417937 63.11999433 15.78460058 67.73933976 15.7623291 72.35876465 C15.73805819 77.92737643 15.72905216 83.49603223 15.71742249 89.06468201 C15.69816991 97.48071122 15.65979302 105.8964562 15.625 114.3125 C2.095 114.3125 -11.435 114.3125 -25.375 114.3125 C-25.41238281 108.69089844 -25.44976562 103.06929687 -25.48828125 97.27734375 C-25.51856904 93.70895413 -25.54972217 90.1406139 -25.58398438 86.57226562 C-25.63824517 80.912542 -25.68935773 75.25291607 -25.72143555 69.59301758 C-25.74750797 65.02817357 -25.78793819 60.46365889 -25.83818626 55.89901924 C-25.85482837 54.16041737 -25.86635916 52.42175857 -25.87261391 50.6830883 C-25.88228407 48.24142071 -25.91037711 45.80059062 -25.94262695 43.35913086 C-25.94119186 42.64558945 -25.93975677 41.93204803 -25.9382782 41.19688416 C-26.03224406 36.14310563 -27.05170804 32.71681257 -29.375 28.3125 C-35.7263456 23.83768833 -43.91597676 24.58963406 -51.375 25.3125 C-54.69410062 26.22795208 -57.45073621 27.51154422 -60.375 29.3125 C-60.98214844 29.68246094 -61.58929688 30.05242187 -62.21484375 30.43359375 C-64.04515671 31.60930067 -65.83100042 32.76850042 -67.375 34.3125 C-67.49997615 36.80649065 -67.5610288 39.27418329 -67.58032227 41.76977539 C-67.59022186 42.55020706 -67.60012146 43.33063873 -67.61032104 44.13471985 C-67.64202775 46.72650063 -67.6667295 49.31829977 -67.69140625 51.91015625 C-67.71196787 53.70235178 -67.73296413 55.49454237 -67.75437927 57.28672791 C-67.80968176 62.0131532 -67.85905483 66.73962285 -67.90722656 71.46612549 C-67.966194 77.13211184 -68.03246677 82.79801681 -68.09752655 88.46393585 C-68.19563889 97.08007437 -68.28442449 105.6962641 -68.375 114.3125 C-81.575 114.3125 -94.775 114.3125 -108.375 114.3125 C-108.375 75.3725 -108.375 36.4325 -108.375 -3.6875 C-95.835 -3.6875 -83.295 -3.6875 -70.375 -3.6875 C-69.715 -0.7175 -69.055 2.2525 -68.375 5.3125 C-67.17875 4.590625 -65.9825 3.86875 -64.75 3.125 C-45.25729868 -7.73521931 -20.20791784 -10.10395892 0 0 Z " fill="#FDFDFE" transform="translate(450.375,163.6875)"/>
<path d="M0 0 C13.2 0 26.4 0 40 0 C40 52.8 40 105.6 40 160 C26.8 160 13.6 160 0 160 C0 107.2 0 54.4 0 0 Z " fill="#FEFEFE" transform="translate(817,118)"/>
<path d="M0 0 C13.2 0 26.4 0 40 0 C40 52.8 40 105.6 40 160 C26.8 160 13.6 160 0 160 C0 107.2 0 54.4 0 0 Z " fill="#FEFEFE" transform="translate(96,118)"/>
<path d="M0 0 C3.74882273 4.01009748 3.24515464 7.97026545 3.27441406 13.28393555 C3.29937706 14.85221603 3.29937706 14.85221603 3.32484436 16.45217896 C3.35014366 18.66275038 3.36188741 20.87351247 3.36108398 23.08422852 C3.37201644 26.46260125 3.46275974 29.83279163 3.55761719 33.2097168 C3.57228965 35.35942849 3.58221179 37.50917893 3.58691406 39.65893555 C3.62284164 40.66536102 3.65876923 41.6717865 3.69578552 42.70870972 C3.64788992 45.65917266 3.50082217 47.84824347 2.43457031 50.60424805 C-5.19114691 57.43770709 -14.16541867 59.07754727 -24.08105469 58.9206543 C-30.41330269 58.34564075 -34.66372674 56.18225688 -39.50292969 52.16674805 C-46.54287529 43.42014897 -45.28642291 29.62972996 -44.32714844 18.9519043 C-42.99244446 11.49643662 -39.28256836 3.29534691 -33.25292969 -1.45825195 C-22.65011754 -7.85249173 -10.35588818 -5.63424179 0 0 Z " fill="#3A65C5" transform="translate(568.5654296875,192.395751953125)"/>
<path d="M0 0 C2.7598787 1.37993935 2.88385236 2.792978 3.97119141 5.65576172 C4.35143463 6.64704071 4.73167786 7.6383197 5.1234436 8.65963745 C5.52872284 9.73875397 5.93400208 10.81787048 6.3515625 11.9296875 C6.97990494 13.58159592 6.97990494 13.58159592 7.62094116 15.26687622 C8.50688423 17.6009442 9.38932204 19.93634518 10.26855469 22.27294922 C11.6178657 25.85605481 12.97991647 29.4341193 14.34375 33.01171875 C15.2012864 35.27575184 16.05808205 37.54006568 16.9140625 39.8046875 C17.3233902 40.87975555 17.7327179 41.95482361 18.15444946 43.06246948 C18.71535782 44.55884445 18.71535782 44.55884445 19.28759766 46.08544922 C19.61909821 46.96401581 19.95059875 47.8425824 20.29214478 48.74777222 C21 51 21 51 21 54 C7.47 54 -6.06 54 -20 54 C-18.02174318 47.4058106 -15.98605911 41.05468755 -13.49609375 34.66796875 C-13.17214127 33.82833084 -12.84818878 32.98869293 -12.51441956 32.12361145 C-11.49226852 29.47687602 -10.46495272 26.83218118 -9.4375 24.1875 C-8.74510636 22.39661438 -8.05304636 20.60559973 -7.36132812 18.81445312 C-2.16168579 5.36309364 -2.16168579 5.36309364 0 0 Z " fill="#3B66C5" transform="translate(713,158)"/>
<path d="M0 0 C2.80805865 1.40402933 2.95090925 2.95968688 4.06298828 5.87109375 C4.66338425 7.42775757 4.66338425 7.42775757 5.27590942 9.01586914 C5.70306244 10.14500732 6.13021545 11.27414551 6.5703125 12.4375 C7.0114035 13.58790771 7.45249451 14.73831543 7.9069519 15.92358398 C9.079273 18.98567288 10.24527505 22.0500741 11.40856934 25.11560059 C12.5957663 28.23823809 13.79274962 31.35710673 14.98828125 34.4765625 C15.89116483 36.83833536 16.79352635 39.20030789 17.6953125 41.5625 C18.12651398 42.69163818 18.55771545 43.82077637 19.00198364 44.98413086 C19.3959433 46.02190674 19.78990295 47.05968262 20.19580078 48.12890625 C20.54506622 49.04744385 20.89433167 49.96598145 21.25418091 50.91235352 C22 53 22 53 22 54 C8.14 54 -5.72 54 -20 54 C-13.79579611 35.82023976 -6.91642049 17.9174764 0 0 Z " fill="#3B66C5" transform="translate(238,158)"/>
</svg>
