<?xml version="1.0" encoding="UTF-8"?>
<svg version="1.1" xmlns="http://www.w3.org/2000/svg" width="342" height="321">
<path d="M0 0 C1.9796719 0.02680607 3.95938972 0.05014783 5.93910599 0.07344818 C9.60647418 0.11855452 13.2734194 0.17629312 16.94054031 0.23806 C18.00518005 0.24962128 19.06981979 0.26118256 20.16672134 0.27309418 C34.42043867 0.5542323 47.40422841 3.44938637 58.06163406 13.55056 C72.95390805 29.67137167 74.15521471 44.60824088 74.14830399 65.54177094 C74.1512996 67.35449543 74.15470305 69.16721929 74.1584816 70.97994232 C74.16728506 75.88508791 74.16965818 80.79021604 74.17029738 85.69536877 C74.17100999 88.76547106 74.17314829 91.83556897 74.1757946 94.90567017 C74.18503608 105.63202952 74.18913101 116.35837648 74.18834305 127.08473969 C74.18774265 137.05772111 74.19829017 147.03064837 74.21408671 157.00361609 C74.22719469 165.58737177 74.23252558 174.17110982 74.23188764 182.75487542 C74.2316336 187.87202884 74.23443257 192.98913409 74.24506569 198.10627747 C74.25480159 202.92277991 74.25478847 207.73918868 74.24754906 212.55569458 C74.24651 214.31438078 74.24882533 216.07307298 74.25490952 217.83174896 C74.31912174 237.69327625 72.36455845 252.7562223 58.00304031 267.6521225 C47.04567041 277.20183029 36.34678124 280.81675876 21.90825272 280.78583527 C21.12190736 280.78810082 20.33556201 280.79036638 19.525388 280.79270059 C16.9056189 280.79900152 14.28590206 280.79821374 11.66612625 280.79738617 C9.78148711 280.80038012 7.89684858 280.8037832 6.01221085 280.80756378 C0.90254232 280.81638448 -4.20710945 280.8187411 -9.31678486 280.81937957 C-12.51249299 280.82009123 -15.70819688 280.82222776 -18.90390396 280.82487679 C-30.06236669 280.8341242 -41.22081748 280.83821247 -52.37928391 280.83742523 C-62.76465752 280.83682477 -73.14997913 280.84737191 -83.53533959 280.8631689 C-92.46466829 280.87626494 -101.39398003 280.88160825 -110.32331824 280.88096982 C-115.65058836 280.88071542 -120.97781227 280.88353467 -126.30507278 280.89414787 C-131.31852755 280.90386347 -136.33189224 280.90388436 -141.34535027 280.89663124 C-143.17905243 280.89558966 -145.0127603 280.8979228 -146.84645271 280.9039917 C-163.76883121 280.95634436 -178.00241471 279.91451636 -191.02039719 267.753685 C-202.75923075 255.27247461 -207.13921019 243.32621889 -207.15085983 226.41257477 C-207.15524209 225.62270257 -207.15962434 224.83283037 -207.16413939 224.01902264 C-207.1774093 221.39322063 -207.18367934 218.76745207 -207.18983078 216.14162445 C-207.1977409 214.25022993 -207.2060104 212.35883688 -207.21461105 210.46744537 C-207.24071975 204.2751126 -207.25612472 198.08277344 -207.27039719 191.89040375 C-207.27576092 189.7522678 -207.28113844 187.61413189 -207.28652954 185.47599602 C-207.30813937 176.57908748 -207.32687455 167.68218067 -207.33815193 158.78525257 C-207.35438545 146.06577843 -207.38757081 133.34660993 -207.44455278 120.62725097 C-207.48332317 111.66560187 -207.50279286 102.70403429 -207.5080725 93.74230355 C-207.51171536 88.39809638 -207.52362401 83.05421605 -207.55617523 77.71010017 C-207.58638202 72.67926822 -207.59252288 67.6489588 -207.58079147 62.61805534 C-207.58057181 60.78033621 -207.58878702 58.94259189 -207.60644531 57.10495758 C-207.76219581 39.95171576 -203.872762 27.26492498 -191.90320969 14.4021225 C-179.48798857 2.52669361 -165.16994414 0.41502292 -148.61805344 0.23806 C-146.85401169 0.20887482 -146.85401169 0.20887482 -145.05433273 0.17910004 C-141.18111348 0.11843911 -137.30789147 0.07203477 -133.43445969 0.0271225 C-132.07053285 0.00893848 -130.7066107 -0.00959979 -129.34269333 -0.02848053 C-86.23018366 -0.62250318 -43.11222855 -0.60618414 0 0 Z " fill="#000000" transform="translate(238.9969596862793,19.347877502441406)"/>
<path d="M0 0 C21.45 0 42.9 0 65 0 C65 9.24 65 18.48 65 28 C60.05 28 55.1 28 50 28 C50 61.66 50 95.32 50 130 C54.95 130 59.9 130 65 130 C65 139.24 65 148.48 65 158 C43.55 158 22.1 158 0 158 C0 148.76 0 139.52 0 130 C4.95 130 9.9 130 15 130 C15 96.34 15 62.68 15 28 C10.05 28 5.1 28 0 28 C0 18.76 0 9.52 0 0 Z " fill="#FAFAFA" transform="translate(140,81)"/>
</svg>
