<?xml version="1.0" encoding="UTF-8"?>
<svg version="1.1" xmlns="http://www.w3.org/2000/svg" width="841" height="195">
<path d="M0 0 C1.6874269 0.00015917 3.37485866 0.00585622 5.06225586 0.01586914 C6.39189613 0.01799156 6.39189613 0.01799156 7.74839783 0.02015686 C10.59133215 0.02577324 13.43418892 0.03832848 16.27709961 0.05102539 C18.19962452 0.05603828 20.12215065 0.06060155 22.04467773 0.06469727 C26.7680151 0.07574798 31.49129419 0.09302356 36.21459961 0.11352539 C36.61437012 1.24290527 37.01414062 2.37228516 37.42602539 3.53588867 C39.39692929 9.10353605 41.36821153 14.67104944 43.33959961 20.23852539 C43.89067383 21.79487198 43.89067383 21.79487198 44.45288086 23.38265991 C49.3658481 37.25696486 54.28363923 51.12954906 59.20678711 65.00024414 C59.45717869 65.70573395 59.70757027 66.41122375 59.96554947 67.13809204 C62.4566565 74.15686621 64.94804045 81.1755419 67.44023323 88.19393063 C68.14841564 90.18840013 68.85647476 92.18291335 69.56448364 94.17744446 C70.43654099 96.63406131 71.30882417 99.09059802 72.18136597 101.54704285 C72.56745026 102.63479507 72.95353455 103.7225473 73.35131836 104.84326172 C73.6886499 105.79324539 74.02598145 106.74322906 74.37353516 107.72200012 C75.00358154 109.51350592 75.61406223 111.31191325 76.21459961 113.11352539 C80.50459961 113.44352539 84.79459961 113.77352539 89.21459961 114.11352539 C89.21459961 122.03352539 89.21459961 129.95352539 89.21459961 138.11352539 C71.06459961 138.11352539 52.91459961 138.11352539 34.21459961 138.11352539 C34.21459961 130.19352539 34.21459961 122.27352539 34.21459961 114.11352539 C37.84459961 114.11352539 41.47459961 114.11352539 45.21459961 114.11352539 C44.85366211 113.12610352 44.49272461 112.13868164 44.12084961 111.12133789 C43.6519328 109.82712748 43.18319191 108.53285333 42.71459961 107.23852539 C42.47612305 106.58754883 42.23764648 105.93657227 41.99194336 105.26586914 C40.21459961 100.34008789 40.21459961 100.34008789 40.21459961 98.11352539 C24.37459961 98.11352539 8.53459961 98.11352539 -7.78540039 98.11352539 C-9.43540039 103.06352539 -11.08540039 108.01352539 -12.78540039 113.11352539 C-9.15540039 113.44352539 -5.52540039 113.77352539 -1.78540039 114.11352539 C-1.29040039 125.99352539 -1.29040039 125.99352539 -0.78540039 138.11352539 C-19.59540039 138.11352539 -38.40540039 138.11352539 -57.78540039 138.11352539 C-57.78540039 130.19352539 -57.78540039 122.27352539 -57.78540039 114.11352539 C-51.35040039 113.61852539 -51.35040039 113.61852539 -44.78540039 113.11352539 C-42.47678481 106.68463621 -40.16918894 100.255382 -37.86248779 93.82580566 C-37.02052385 91.47900234 -36.17844244 89.13224116 -35.33624268 86.78552246 C-30.40897514 73.05397803 -25.49615305 59.31753276 -20.61929131 45.5680027 C-19.88879077 43.50859713 -19.15795351 41.44931136 -18.42701721 39.39006042 C-16.30189527 33.40242919 -14.1778714 27.41442532 -12.0601759 21.42416286 C-10.97853294 18.3667344 -9.89335207 15.31056134 -8.80883789 12.25415039 C-8.41491348 11.1368605 -8.02098907 10.01957062 -7.61512756 8.86842346 C-7.25543381 7.85650436 -6.89574005 6.84458527 -6.52514648 5.80200195 C-6.21161224 4.91595276 -5.898078 4.02990356 -5.57504272 3.11700439 C-4.20647437 -0.35532459 -4.13630043 0.124049 0 0 Z M15.21459961 28.11352539 C12.93169611 34.7689736 10.65351617 41.42602471 8.37866211 48.08422852 C7.60371657 50.35055414 6.82767783 52.61650626 6.05053711 54.88208008 C4.93570066 58.13273839 3.82476241 61.38470595 2.71459961 64.63696289 C2.36461914 65.65470795 2.01463867 66.672453 1.65405273 67.72103882 C1.3337207 68.6618631 1.01338867 69.60268738 0.68334961 70.57202148 C0.39911133 71.40253021 0.11487305 72.23303894 -0.17797852 73.0887146 C-0.88117993 75.08047535 -0.88117993 75.08047535 -0.78540039 77.11352539 C3.02708306 77.14289041 6.83953687 77.16044574 10.65209961 77.17602539 C11.72137695 77.1844043 12.7906543 77.1927832 13.89233398 77.20141602 C20.09084189 77.2203717 26.0695477 76.93415798 32.21459961 76.11352539 C29.94913086 67.05789135 27.00143163 58.26090234 23.97119141 49.43994141 C23.14378419 47.02677312 22.32647351 44.61032849 21.50952148 42.19360352 C20.98343421 40.65498491 20.45676321 39.11656575 19.92944336 37.57836914 C19.68669174 36.85761703 19.44394012 36.13686493 19.1938324 35.39427185 C17.81464992 31.39581089 17.81464992 31.39581089 15.21459961 28.11352539 Z " fill="#0A0A0A" transform="translate(609.785400390625,27.886474609375)"/>
<path d="M0 0 C1.64510941 0.00015915 3.29022379 0.00585551 4.93530273 0.01586914 C6.23164894 0.01799156 6.23164894 0.01799156 7.55418396 0.02015686 C10.32578941 0.025773 13.09731528 0.0383282 15.86889648 0.05102539 C17.74324428 0.05603831 19.61759334 0.06060158 21.49194336 0.06469727 C26.09679192 0.07574767 30.70158069 0.09302309 35.30639648 0.11352539 C38.44966557 7.75507013 41.27119068 15.48955836 44.01733398 23.28149414 C44.46700304 24.55236291 44.91687797 25.82315886 45.36694336 27.09388733 C46.56136949 30.46760343 47.75351107 33.8421223 48.9451828 37.21681213 C50.92003221 42.80759019 52.89904961 48.39689537 54.87810135 53.98618698 C55.37211033 55.38138618 55.86604492 56.77661173 56.35990524 58.17186356 C59.50572787 67.05821132 62.66987041 75.93756046 65.86889648 84.80493164 C66.20297516 85.73142014 66.53705383 86.65790863 66.8812561 87.61247253 C68.39775302 91.81527615 69.91851632 96.01648154 71.44458008 100.21582031 C71.9689086 101.66606909 72.49316508 103.11634392 73.01733398 104.56665039 C73.68708252 106.40984863 73.68708252 106.40984863 74.37036133 108.2902832 C75.30639648 111.11352539 75.30639648 111.11352539 75.30639648 113.11352539 C82.23639648 113.60852539 82.23639648 113.60852539 89.30639648 114.11352539 C89.63639648 122.03352539 89.96639648 129.95352539 90.30639648 138.11352539 C71.49639648 138.11352539 52.68639648 138.11352539 33.30639648 138.11352539 C33.30639648 130.19352539 33.30639648 122.27352539 33.30639648 114.11352539 C36.93639648 113.78352539 40.56639648 113.45352539 44.30639648 113.11352539 C42.65639648 108.16352539 41.00639648 103.21352539 39.30639648 98.11352539 C23.46639648 98.11352539 7.62639648 98.11352539 -8.69360352 98.11352539 C-10.34360352 103.06352539 -11.99360352 108.01352539 -13.69360352 113.11352539 C-10.06360352 113.44352539 -6.43360352 113.77352539 -2.69360352 114.11352539 C-2.69360352 122.03352539 -2.69360352 129.95352539 -2.69360352 138.11352539 C-20.84360352 138.11352539 -38.99360352 138.11352539 -57.69360352 138.11352539 C-57.69360352 130.19352539 -57.69360352 122.27352539 -57.69360352 114.11352539 C-51.25860352 113.12352539 -51.25860352 113.12352539 -44.69360352 112.11352539 C-44.19248047 110.70514404 -43.69135742 109.2967627 -43.17504883 107.84570312 C-33.7930783 81.48758883 -24.37949818 55.14114088 -14.83581543 28.84109497 C-13.94855086 26.39553791 -13.06224058 23.94963441 -12.17687988 21.50338745 C-10.94187594 18.09242001 -9.70312739 14.68283817 -8.46313477 11.27368164 C-8.09426651 10.25343903 -7.72539825 9.23319641 -7.34535217 8.18203735 C-7.00886154 7.25974335 -6.67237091 6.33744934 -6.32568359 5.38720703 C-5.88655388 4.17829552 -5.88655388 4.17829552 -5.43855286 2.94496155 C-4.09964644 -0.34670071 -3.94886064 0.12137089 0 0 Z M15.30639648 29.11352539 C11.4319645 37.92591722 8.24000247 46.8724363 5.22949219 56.00805664 C4.48294035 58.27174651 3.72814617 60.53257386 2.97241211 62.79321289 C2.49341718 64.23576216 2.01488367 65.67846474 1.53686523 67.12133789 C1.31193893 67.79520538 1.08701263 68.46907288 0.85527039 69.1633606 C-0.30664932 72.56675402 -0.30664932 72.56675402 -0.69360352 76.11352539 C10.14388763 77.40480093 20.45011021 77.15811651 31.30639648 76.11352539 C30.05248491 69.87307311 28.3646412 63.92812843 26.26733398 57.92211914 C25.9816153 57.09140396 25.69589661 56.26068878 25.40151978 55.40480042 C24.49938711 52.78526999 23.59052105 50.16813636 22.68139648 47.55102539 C22.06375979 45.76146682 21.44656815 43.97175458 20.82983398 42.18188477 C19.32715565 37.82397331 17.81843933 33.46819608 16.30639648 29.11352539 C15.97639648 29.11352539 15.64639648 29.11352539 15.30639648 29.11352539 Z " fill="#090909" transform="translate(201.693603515625,27.886474609375)"/>
<path d="M0 0 C13.86 0 27.72 0 42 0 C42.33 40.92 42.66 81.84 43 124 C47.29 124.33 51.58 124.66 56 125 C56.495 135.395 56.495 135.395 57 146 C42.81 146 28.62 146 14 146 C13.505 141.545 13.505 141.545 13 137 C11.865625 137.9075 10.73125 138.815 9.5625 139.75 C-1.67217402 148.19097177 -13.36777094 149.09410219 -27 148 C-33.74270212 146.62872338 -39.54817513 144.25508283 -45 140 C-46.19302734 139.09894531 -46.19302734 139.09894531 -47.41015625 138.1796875 C-57.48767341 129.69815722 -62.69076417 116.89398922 -64 104 C-65.19316882 78.66117418 -65.19316882 78.66117418 -61 68 C-60.50693359 66.72382813 -60.50693359 66.72382813 -60.00390625 65.421875 C-55.07787318 54.30847166 -46.21862772 45.5066145 -35.0703125 40.75 C-22.57142029 36.34941203 -9.10460093 36.27077607 3 42 C6.3 44.31 9.6 46.62 13 49 C13 40.09 13 31.18 13 22 C9.7 22 6.4 22 3 22 C1.515 21.505 1.515 21.505 0 21 C0 14.07 0 7.14 0 0 Z M-29.5390625 74.87890625 C-34.34835739 81.86138519 -34.91194758 90.80260456 -34 99 C-32.24536087 107.310952 -30.20936319 113.89211907 -23.4296875 119.23828125 C-16.97064262 123.30664069 -9.33918274 122.7644982 -2 122 C1.2635727 121.23000082 3.41863985 120.1237554 6 118 C6.6703125 117.47148437 7.340625 116.94296875 8.03125 116.3984375 C12.40577426 112.04127247 13.38538734 108.11730899 13.52612305 102.13574219 C13.48392079 98.07959218 13.26858315 94.04659335 13 90 C12.95230469 88.85660156 12.90460938 87.71320313 12.85546875 86.53515625 C12.43654277 79.43289951 11.01425196 74.63547406 5.625 69.75 C0.77204608 65.62831311 -3.62653727 64.70805688 -9.9375 64.6875 C-11.12214844 64.67074219 -12.30679688 64.65398437 -13.52734375 64.63671875 C-20.81312167 65.39889799 -25.04632223 69.39411419 -29.5390625 74.87890625 Z " fill="#090909" transform="translate(490,20)"/>
<path d="M0 0 C9.39832573 6.74624087 13.70004366 15.22258748 15.83953857 26.43719482 C16.56479186 31.40720189 16.60961123 36.36745612 16.6640625 41.3828125 C16.68342865 42.50066132 16.7027948 43.61851013 16.7227478 44.77023315 C16.78204289 48.30508028 16.82872733 51.83996087 16.875 55.375 C16.91322591 57.78647174 16.95228025 60.1979305 16.9921875 62.609375 C17.08770284 68.48947664 17.17191687 74.36964209 17.25 80.25 C21.54 80.58 25.83 80.91 30.25 81.25 C30.745 91.645 30.745 91.645 31.25 102.25 C17.06 102.25 2.87 102.25 -11.75 102.25 C-12.89042896 82.86270763 -12.89042896 82.86270763 -12.99609375 74.16796875 C-13.0289852 72.22720823 -13.06219751 70.28645313 -13.09570312 68.34570312 C-13.14315768 65.37967028 -13.18781332 62.41366654 -13.22680664 59.44750977 C-12.32834803 39.65416845 -12.32834803 39.65416845 -20.1171875 22.5546875 C-24.29511041 19.21634719 -27.9099165 18.7514671 -33.15234375 18.875 C-38.27926593 19.61512711 -41.94049244 22.192923 -45.3203125 26.03515625 C-53.10194889 36.50701551 -50.97203425 52.99024669 -51.3125 65.625 C-51.3558463 67.15104946 -51.39946469 68.67709122 -51.44335938 70.203125 C-51.54919287 73.88533195 -51.64949393 77.56762868 -51.75 81.25 C-47.13 81.25 -42.51 81.25 -37.75 81.25 C-37.75 88.18 -37.75 95.11 -37.75 102.25 C-56.56 102.25 -75.37 102.25 -94.75 102.25 C-94.42 95.32 -94.09 88.39 -93.75 81.25 C-87.315 80.755 -87.315 80.755 -80.75 80.25 C-80.42 59.46 -80.09 38.67 -79.75 17.25 C-84.7 17.25 -89.65 17.25 -94.75 17.25 C-94.42 10.32 -94.09 3.39 -93.75 -3.75 C-79.89 -4.08 -66.03 -4.41 -51.75 -4.75 C-51.09 -1.78 -50.43 1.19 -49.75 4.25 C-48.656875 3.3425 -47.56375 2.435 -46.4375 1.5 C-32.86383045 -8.49666413 -14.27668752 -8.85486092 0 0 Z " fill="#070707" transform="translate(390.75,63.75)"/>
<path d="M0 0 C18.81 0 37.62 0 57 0 C57 7.92 57 15.84 57 24 C53.98509443 25.00496852 51.95818308 25.10335303 48.8125 25.0625 C47.91144531 25.05347656 47.01039063 25.04445313 46.08203125 25.03515625 C45.39496094 25.02355469 44.70789063 25.01195313 44 25 C44.00222061 25.98226059 44.00444122 26.96452118 44.00672913 27.97654724 C44.02705182 37.25962883 44.042016 46.54270587 44.05181217 55.82580471 C44.05701787 60.59766509 44.06407327 65.36950742 44.07543945 70.14135742 C44.08635083 74.75142149 44.09229425 79.36146827 44.09487724 83.97154427 C44.09671667 85.72528416 44.10030849 87.47902318 44.10573006 89.23275566 C44.11305016 91.70003131 44.11398635 94.16723662 44.11352539 96.63452148 C44.11712067 97.35022308 44.12071594 98.06592468 44.12442017 98.80331421 C44.11413501 103.93221606 43.63088779 108.90948176 43 114 C47.62 114 52.24 114 57 114 C57 121.92 57 129.84 57 138 C38.19 138 19.38 138 0 138 C0 130.08 0 122.16 0 114 C4.29 114 8.58 114 13 114 C13 84.3 13 54.6 13 24 C8.71 24 4.42 24 0 24 C0 16.08 0 8.16 0 0 Z " fill="#070707" transform="translate(708,28)"/>
<path d="M0 0 C18.81 0 37.62 0 57 0 C57 7.92 57 15.84 57 24 C52.71 24 48.42 24 44 24 C44 53.7 44 83.4 44 114 C48.29 114 52.58 114 57 114 C57 121.92 57 129.84 57 138 C38.19 138 19.38 138 0 138 C0 130.08 0 122.16 0 114 C4.62 114 9.24 114 14 114 C13.83734146 112.68753799 13.67468292 111.37507599 13.50709534 110.02284241 C13.01121147 105.54020849 12.86383841 101.14064696 12.88647461 96.63452148 C12.88632858 95.8529216 12.88618256 95.07132172 12.8860321 94.26603699 C12.88672117 91.71769297 12.89446573 89.16942478 12.90234375 86.62109375 C12.90421151 84.84033752 12.90563372 83.05958078 12.90663147 81.27882385 C12.91042843 76.61822055 12.92023428 71.95764897 12.93133545 67.29705811 C12.94161057 62.53072539 12.9461421 57.7643875 12.95117188 52.99804688 C12.96185937 43.66535073 12.97890147 34.33267802 13 25 C11.96939453 25.01740234 11.96939453 25.01740234 10.91796875 25.03515625 C10.01691406 25.04417969 9.11585937 25.05320312 8.1875 25.0625 C6.84751953 25.07990234 6.84751953 25.07990234 5.48046875 25.09765625 C3 25 3 25 0 24 C0 16.08 0 8.16 0 0 Z " fill="#070707" transform="translate(78,28)"/>
<path d="M0 0 C2 3 2 3 2 5 C-1.96 5 -5.92 5 -10 5 C-10 12.59 -10 20.18 -10 28 C-10.33 28 -10.66 28 -11 28 C-11 20.08 -11 12.16 -11 4 C-5.555 3.505 -5.555 3.505 0 3 C0 2.01 0 1.02 0 0 Z " fill="#696969" transform="translate(246,138)"/>
<path d="M0 0 C2 3 2 3 2 5 C-2.29 5 -6.58 5 -11 5 C-11 4.67 -11 4.34 -11 4 C-5.555 3.505 -5.555 3.505 0 3 C0 2.01 0 1.02 0 0 Z " fill="#9E9E9E" transform="translate(246,138)"/>
</svg>
